<svg xmlns="http://www.w3.org/2000/svg" viewBox="0 0 936 936">
  <path d="M373.66,741.21,460.21,931a8.56,8.56,0,0,0,15.58,0l86.56-189.79a128.09,128.09,0,0,0-8.28-121.61c-20.2-31.95-46.51-74.11-72.06-94.67a22.29,22.29,0,0,0-28,0c-25.55,20.56-51.86,62.73-72.06,94.67A128.09,128.09,0,0,0,373.66,741.21Z"/>
  <path d="M562.34,194.79,475.79,5a8.56,8.56,0,0,0-15.58,0L373.66,194.79a128.09,128.09,0,0,0,8.28,121.61c20.2,31.95,46.51,74.11,72.06,94.67a22.29,22.29,0,0,0,28,0c25.55-20.56,51.86-62.73,72.06-94.67A128.09,128.09,0,0,0,562.34,194.79Z"/>
  <path d="M194.79,373.66,5,460.21a8.56,8.56,0,0,0,0,15.58l189.79,86.56a128.09,128.09,0,0,0,121.61-8.28c31.95-20.2,74.11-46.51,94.67-72.06a22.29,22.29,0,0,0,0-28c-20.56-25.55-62.73-51.86-94.67-72.06A128.09,128.09,0,0,0,194.79,373.66Z"/>
  <path d="M741.21,562.34,931,475.79a8.56,8.56,0,0,0,0-15.58L741.21,373.66a128.09,128.09,0,0,0-121.61,8.28c-31.95,20.2-74.11,46.51-94.67,72.06a22.29,22.29,0,0,0,0,28c20.56,25.55,62.73,51.86,94.67,72.06A128.09,128.09,0,0,0,741.21,562.34Z"/>
  <path d="M328.32,182.09c-19.7-.77-57.42.87-96.9,19.33a62.3,62.3,0,0,0-30,30c-18.45,39.48-20.1,77.2-19.33,96.9.45,11.4,9.76,18.09,20.66,14.75a52.15,52.15,0,0,0,7.46-3,87.74,87.74,0,0,1,54.18-7.6,686.6,686.6,0,0,1,77.09,18.85,7.86,7.86,0,0,0,9.88-9.88,686.6,686.6,0,0,1-18.85-77.09,87.74,87.74,0,0,1,7.6-54.18,52.15,52.15,0,0,0,3-7.46C346.41,191.84,339.72,182.53,328.32,182.09Z"/>
  <path d="M607.68,753.91c19.7.77,57.42-.87,96.9-19.33a62.3,62.3,0,0,0,30-30c18.45-39.48,20.1-77.2,19.33-96.9-.45-11.4-9.76-18.09-20.66-14.75a52.15,52.15,0,0,0-7.46,3,87.74,87.74,0,0,1-54.18,7.6,686.6,686.6,0,0,1-77.09-18.85,7.86,7.86,0,0,0-9.88,9.88,686.6,686.6,0,0,1,18.85,77.09,87.74,87.74,0,0,1-7.6,54.18,52.15,52.15,0,0,0-3,7.46C589.59,744.16,596.28,753.47,607.68,753.91Z"/>
  <path d="M757.65,326.48c.78-20-.89-58.16-19.58-98.16a63.11,63.11,0,0,0-30.4-30.4c-40-18.69-78.2-20.36-98.16-19.58-11.54.45-18.33,9.88-14.94,20.93a52.83,52.83,0,0,0,3,7.56,88.88,88.88,0,0,1,7.7,54.88A695.51,695.51,0,0,1,586.2,339.8a8,8,0,0,0,10,10,695.51,695.51,0,0,1,78.09-19.09,88.88,88.88,0,0,1,54.88,7.7,52.83,52.83,0,0,0,7.56,3C747.77,344.81,757.2,338,757.65,326.48Z"/>
  <path d="M178.35,609.52c-.78,20,.89,58.16,19.58,98.16a63.11,63.11,0,0,0,30.4,30.4c40,18.69,78.2,20.36,98.16,19.58,11.54-.45,18.33-9.88,14.94-20.93a52.83,52.83,0,0,0-3-7.56,88.88,88.88,0,0,1-7.7-54.88A695.51,695.51,0,0,1,349.8,596.2a8,8,0,0,0-10-10,695.51,695.51,0,0,1-78.09,19.09,88.88,88.88,0,0,1-54.88-7.7,52.83,52.83,0,0,0-7.56-3C188.23,591.19,178.8,598,178.35,609.52Z"/>
</svg>
